<?xml version="1.0" encoding="utf-8"?>
<!-- Generator: Adobe Illustrator 25.0.0, SVG Export Plug-In . SVG Version: 6.00 Build 0)  -->
<svg version="1.1" id="Layer_2" xmlns="http://www.w3.org/2000/svg" xmlns:xlink="http://www.w3.org/1999/xlink" x="0px" y="0px"
	 viewBox="0 0 652.3 393.5" style="enable-background:new 0 0 652.3 393.5;" xml:space="preserve">
<style type="text/css">
	.st0{fill:none;stroke:#000000;stroke-miterlimit:10;}
	.st1{fill:none;stroke:#000000;stroke-width:16;stroke-miterlimit:10;}
	.st2{fill:none;stroke:#000000;stroke-width:13;stroke-miterlimit:10;}
</style>
<path class="st0" d="M647.6,11c0,0-10.9,77.7-221,54.9c0,0-115-14.9-106.4,43.5c1.4,9.4,6.2,17.8,12.2,25.2
	C357.2,165,445.8,268.4,309,259.1c0,0-291.6-44.2-294.4,116.2"/>
<path class="st1" d="M22.8,386.2"/>
<path class="st1" d="M10.8,381.6"/>
<path class="st2" d="M18.2,375.9c-1.1-0.4-2.3-0.2-3.2,0.6c-0.5,0.4-1.1,1.1-1.3,2c-0.5,2.2,1,4.4,3.2,4.5c0,0,0.1,0,0.1,0
	c0,0,1.7,0.1,2.8-1.3c0.7-0.8,0.8-2,0.6-3C20.2,377.7,19.6,376.4,18.2,375.9z"/>
</svg>
