<?xml version="1.0" encoding="utf-8"?>
<!-- Generator: Adobe Illustrator 25.0.0, SVG Export Plug-In . SVG Version: 6.00 Build 0)  -->
<svg version="1.1" xmlns="http://www.w3.org/2000/svg" xmlns:xlink="http://www.w3.org/1999/xlink" x="0px" y="0px"
	 viewBox="0 0 264.1 101.6" style="enable-background:new 0 0 264.1 101.6;" xml:space="preserve">
<style type="text/css">
	.st0{fill:none;stroke:#F90303;stroke-width:3;stroke-linecap:round;stroke-linejoin:round;}
</style>
<g id="Layer_1">
	
		<image style="overflow:visible;" width="383" height="151" xlink:href="C:\Users\EZEN\Desktop\캡처.PNG"  transform="matrix(0.75 0 0 0.75 6.0373 204.0021)">
	</image>
</g>
<g id="Layer_2">
	<path class="st0" d="M44.9,6.4c0,0-19.2,76.3-38.3,79.4c0,0,8.5,3.9,35.1-60c0,0,4.7-13.7,16.3-16c6.5-1.3,14.3,3.6,15.6,10.1
		c1.5,7.7-0.1,21.3-13,45.3c-1.6,2.9-3.6,5.6-5.8,8.1c-7.8,8.8-25.6,25.3-29.3-1.4"/>
	<path class="st0" d="M79.2,58.7c0,0-9.1,17.8,1.3,16.4c2.9-0.4,5.5-2,7.3-4.3c2.9-3.5,7-10.1,6.9-18.4c0-2.2-0.8-4.3-2.4-5.8
		c-2.3-2.1-6.2-2.8-11.4,6.6c0,0-8.7,22,18.2,14.9c2.3-0.6,4.4-1.7,6.3-3.1c9.3-7.3,39.2-32.3,37.8-53.3c-0.1-1.5-1.1-2.9-2.6-3.3
		c-4.6-1.4-15.9,1.8-31.2,50.1l-4.4,14.8c0,0,16.2-22.1,20.9-9.6c0,0,4.6,7.5-13.7,19.2c0,0-2.6,1.9-3.8,0.5
		c-0.7-0.7-0.5-1.8,0.2-2.5c1.4-1.3,5.2-3.3,15.6-5.7c1.3-0.3,2.5-0.8,3.6-1.6c4.2-2.8,14.5-10.2,17.8-18.9c0,0-6.9,14.7-4.5,23
		c0.4,1.4,1.8,2.3,3.3,2.1c3.4-0.6,10.3-4.3,21.5-21.2L159.7,73l19.2-21.3c0,0,5.9-8.1-2.2,23.3c0,0-1.4,9.3,18.5-15.7"/>
	<path class="st0" d="M198.3,68.3c-0.9,0.3-1.7,1-2.1,1.9c-0.8,1.4-0.6,3.3,2.2,3.7c0,0,2.3,0.5,2.3-3.1
		C200.7,70.8,200.7,67.5,198.3,68.3z"/>
	<path class="st0" d="M212,29.5c0,0-7.3,1.6-2.9-11.8c0.9-2.7,2.4-5.2,4.5-7.1c3-2.7,7.5-4.5,10.4,3.9c0,0,9.6,22.1-25.4,72.8
		c-2.2,3.2-5.3,5.7-8.9,7.2c-4.4,1.8-9.3,2.2-8.3-5.7"/>
	<path class="st0" d="M256.3,12.4c0,0-8.1,0-18.7,21.4c-1,2.1-2.3,4-3.9,5.7c-4.1,4.5-12,12.6-13.7,10c0,0,10,0.8,8.1,18.6
		c0,0-9.5,44,28.2-8.3"/>
	<path class="st0" d="M145.5,48c0,0-0.7,3,1.4,3.2c0,0,1.8,0.3,2-2c0,0-0.2-2-1.3-2.2C147.7,47,146.1,46.6,145.5,48z"/>
	<path class="st0" d="M6,69.4c0,0,6.7-5.8,11.6-5.4"/>
</g>
</svg>
