<?xml version="1.0" encoding="utf-8"?>
<!-- Generator: Adobe Illustrator 25.0.0, SVG Export Plug-In . SVG Version: 6.00 Build 0)  -->
<svg version="1.1" xmlns="http://www.w3.org/2000/svg" xmlns:xlink="http://www.w3.org/1999/xlink" x="0px" y="0px"
	 viewBox="0 0 385 224.6" style="enable-background:new 0 0 385 224.6;" xml:space="preserve">
<style type="text/css">
	.st0{fill:none;stroke:#EA0000;stroke-width:3;stroke-linecap:round;stroke-linejoin:round;}
</style>
<g id="Layer_1">
	
		<image style="overflow:visible;" width="766" height="357" xlink:href="C:\Users\EZEN\Desktop\123333.PNG"  transform="matrix(0.75 0 0 0.75 -115.802 -294.2871)">
	</image>
</g>
<g id="Layer_2">
	<path class="st0" d="M32.6,181.6c0,0-29.7,15.9-21.9-13.3c0,0,8.3-26.6,52-38.7c0,0,30.3-9.7,38.7,9.6c1.3,3,1.8,6.2,1.7,9.5
		c-0.3,10.1-3.7,37.5-31.2,58.3c0,0-52.3,46.8-15.7-61.5"/>
	<path class="st0" d="M112,150.6c0,0-3.5,12.6,2.9,19.8c3.6,4.1,10.2,3.3,12.9-1.3c1.4-2.4,2.7-5.8,3.6-10.9c0.5-2.9,0.5-6-0.3-8.8
		c-1-3.6-3.5-7.7-9-8.4c-3.7-0.5-7.3,1.6-9.1,4.9c-2.6,4.8-2.2,10.2,22.1-6.2"/>
	<path class="st0" d="M145.7,104.4c-0.6,0.1-13.2,71.4,4.2,54.7c0.3-0.3,0.6-0.6,0.9-1c2.3-3,12.5-17.3,8.4-31.9
		c-0.8-2.7-3.7-4.1-6.3-2.9c-3.9,1.8-9.9,7.3-12.1,24.5"/>
	<path class="st0" d="M171.2,99.7c-1.1,0.3-2,1.2-2.4,2.3c-0.9,2.5-2.2,7.2,1.5,7.2c0,0,3.6,1.4,3.8-4.9
		C174.1,104.4,174.7,98.7,171.2,99.7z"/>
	<path class="st0" d="M169.5,114.2c-0.4,1.5-0.7,63.9,18.5,10.4c0.6-1.7,1-3.4,1.2-5.2l1.7-13.3l0.6,30.4c0,0,13.2-59.8,14-29.1
		c0,0-2.4,54.4,17.2-4.8"/>
	<path class="st0" d="M241.7,84.9c0,0-38,11.9,1.2-40.8c0,0,18-25.9,24.3-11.1c1.1,2.6,1.3,5.4,0.9,8.2
		c-2.3,14.5-11.1,74.5,0.5,58.5"/>
	<path class="st0" d="M308.5,10.3c0,0-30.5,31.4-36.1,48.7c-0.5,1.6,0.1,3.3,1.5,4.2c10,6.4,50.2,31.1,54.9,13.6"/>
	<path class="st0" d="M311.1,43.2c0,0-2.7,61.8,19.6,8.3V35.3l1,30c0,0,8.1-46.7,15.5-36.9c1,1.3,1.4,3,1.3,4.6l-1.2,21.3
		c0,0,2.4-25.3,8.5-33c1.8-2.3,5.5-1,5.4,1.9c-0.2,12.3,0.2,49.6,14,8.1"/>
	<path class="st0" d="M313.9,30.3c-1.8-1.6-5-0.7-5.3,1.7c-0.2,2,0,5.1,3,5c0,0,3.4,0,3.5-4.1c0-0.8-0.3-1.7-0.9-2.3
		C314.1,30.5,314,30.4,313.9,30.3z"/>
</g>
</svg>
