<?xml version="1.0" encoding="utf-8"?>
<!-- Generator: Adobe Illustrator 25.0.0, SVG Export Plug-In . SVG Version: 6.00 Build 0)  -->
<svg version="1.1" xmlns="http://www.w3.org/2000/svg" xmlns:xlink="http://www.w3.org/1999/xlink" x="0px" y="0px"
	 viewBox="0 0 156.8 99.8" style="enable-background:new 0 0 156.8 99.8;" xml:space="preserve">
<style type="text/css">
	.st0{fill:none;stroke:#EA0000;stroke-width:3;stroke-linecap:round;stroke-linejoin:round;}
	.st1{fill:none;stroke:#0867FF;stroke-linecap:round;stroke-linejoin:round;stroke-miterlimit:10;}
</style>
<g id="Layer_1">
	
		<image style="overflow:visible;" width="766" height="357" xlink:href="C:\Users\EZEN\Desktop\123333.PNG"  transform="matrix(0.75 0 0 0.75 -1132.3564 -425.4554)">
	</image>
</g>
<g id="Layer_2">
	<path class="st0" d="M-983.9,50.4c0,0-29.7,15.9-21.9-13.3c0,0,8.3-26.6,52-38.7c0,0,30.3-9.7,38.7,9.6c1.3,3,1.8,6.2,1.7,9.5
		c-0.3,10.1-3.7,37.5-31.2,58.3c0,0-52.3,46.8-15.7-61.5"/>
	<path class="st0" d="M-904.6,19.4c0,0-3.5,12.6,2.9,19.8c3.6,4.1,10.2,3.3,12.9-1.3c1.4-2.4,2.7-5.8,3.6-10.9
		c0.5-2.9,0.5-6-0.3-8.8c-1-3.6-3.5-7.7-9-8.4c-3.7-0.5-7.3,1.6-9.1,4.9c-2.6,4.8-2.2,10.2,22.1-6.2"/>
	<path class="st0" d="M-870.8-26.8c-0.6,0.1-13.2,71.4,4.2,54.7c0.3-0.3,0.6-0.6,0.9-1c2.3-3,12.5-17.3,8.4-31.9
		c-0.8-2.7-3.7-4.1-6.3-2.9c-3.9,1.8-9.9,7.3-12.1,24.5"/>
	<path class="st0" d="M-845.4-31.5c-1.1,0.3-2,1.2-2.4,2.3c-0.9,2.5-2.2,7.2,1.5,7.2c0,0,3.6,1.4,3.8-4.9
		C-842.4-26.8-841.9-32.4-845.4-31.5z"/>
	<path class="st0" d="M-847-16.9c-0.4,1.5,4.7,65.3,18.8,9.1c0.5-1.8,1-4.8,1.3-6.7l1.3-10.5l0.6,30.4c0,0,13-58.7,14-29.9
		c0,0.5,0,1,0,1.5c-0.2,6.1-1,49.7,17.3-5.4"/>
	<path class="st0" d="M-774.8-46.3c0,0-38,11.9,1.2-40.8c0,0,18-25.9,24.3-11.1c1.1,2.6,1.3,5.4,0.9,8.2
		c-2.3,14.5-11.1,74.5,0.5,58.5"/>
	<path class="st0" d="M-708-120.9c0,0-30.5,31.4-36.1,48.7c-0.5,1.6,0.1,3.3,1.5,4.2c10,6.4,50.2,31.1,54.9,13.6"/>
	<path class="st0" d="M-705.4-88c0,0-2.7,61.8,19.6,8.3v-16.2l1,30c0,0,8.1-46.7,15.5-36.9c1,1.3,1.4,3,1.3,4.6l-1.2,21.3
		c0,0,2.4-25.3,8.5-33c1.8-2.3,5.5-1,5.4,1.9c-0.2,12.3,0.2,49.6,14,8.1"/>
	<path class="st0" d="M-702.7-100.9c-1.8-1.6-5-0.7-5.3,1.7c-0.2,2,0,5.1,3,5c0,0,3.4,0,3.5-4.1c0-0.8-0.3-1.7-0.9-2.3
		C-702.5-100.7-702.6-100.8-702.7-100.9z"/>
</g>
<g id="Layer_3">
	
		<image style="overflow:visible;" width="766" height="357" xlink:href="C:\Users\EZEN\Desktop\123333.PNG"  transform="matrix(0.3061 0 0 0.3061 -365.6658 -326.3503)">
	</image>
</g>
<g id="Layer_4">
	<path class="st1" d="M-274.9-233.7c0,0-12.5,2.4-6.6-7.9c1.5-2.7,3.7-5,6.3-6.8c6.7-4.7,21.8-13.6,28.4-3.1c0,0,6.5,10.1-12.7,28.3
		c0,0-13.6,15.9-4.9-25.5"/>
	<path class="st1" d="M-242.6-245.4c0,0,2-7.9,6.8-3.6c0.8,0.7,1.2,1.7,1.3,2.7c0.1,2.6-0.2,7.5-3.5,8.1c-1.5,0.3-3-0.5-3.7-1.8
		c-0.6-1.1-1.2-2.7-0.9-4.6c0.2-1.3,1-2.3,2.3-2.9l7.2-3.4"/>
	<path class="st1" d="M-228.5-265.3c0,0-6,27,1.3,22.2c1-0.6,1.7-1.6,2.2-2.6c1-2.2,2.8-6.8,1.9-10.2c-0.4-1.6-2.4-2.3-3.7-1.3
		c-1.4,1.1-3.4,3.1-3.7,9.3"/>
	<path class="st1" d="M-218.5-261.6c0,0,0,25,6.7,6c0.2-0.6,0.4-1.1,0.5-1.7l1.4-7.3l0.2,12.5c0,0,6.4-29.9,6.5-8.8
		c0,0-0.5,14.8,6.3-5.4"/>
	<path class="st1" d="M-219.6-266.2c0,0-0.9,2.5,1.3,2.5c0,0,2.2-0.3,1.4-2.2C-216.9-265.9-218.2-267.9-219.6-266.2z"/>
	<path class="st1" d="M-189-273.4c0,0-11.8,6.1-4.5-10.3c0,0,13.5-22.5,14.8-8.2c0.1,1.2,0.1,2.5-0.1,3.7c-0.7,5.5-3,24.5,0.2,21.3"
		/>
	<path class="st1" d="M-162.1-303.7c0,0-18.4,19-13,22.3c0,0,17.3,11.2,21.5,4.6"/>
	<path class="st1" d="M-161.2-290.7c0,0-1.4,23.3,7.4,6.2c0.8-1.5,1.2-3.2,1.2-5v-4.2l0.4,12c0,0,6.4-23.8,6.4-12.9v8.4
		c0,0,4.5-23.5,5.7-8.7c0,0.4,0,0.8,0,1.2c0,2.6,1.2,11.5,5.4-1.3"/>
	<path class="st1" d="M-161.8-295.4c0,0-0.6,3,1.9,2.2c0,0,1.3-0.4,0.5-2.5C-159.5-295.8-160.9-297.3-161.8-295.4z"/>
</g>
<g id="Layer_5">
	<path class="st1" d="M12.1,77c0,0-12.5,2.4-6.6-7.9c1.5-2.7,3.7-5,6.3-6.8c6.7-4.7,21.8-13.6,28.4-3.1c0,0,6.5,10.1-12.7,28.3
		c0,0-13.6,15.9-4.9-25.5"/>
	<path class="st1" d="M44.4,65.4c0,0,2-7.9,6.8-3.6c0.8,0.7,1.2,1.7,1.3,2.7c0.1,2.6-0.2,7.5-3.5,8.1c-1.5,0.3-3-0.5-3.7-1.8
		c-0.6-1.1-1.2-2.7-0.9-4.6c0.2-1.3,1-2.3,2.3-2.9l7.2-3.4"/>
	<path class="st1" d="M58.5,45.5c0,0-6,27,1.3,22.2c1-0.6,1.7-1.6,2.2-2.6c1-2.2,2.8-6.8,1.9-10.2c-0.4-1.6-2.4-2.3-3.7-1.3
		c-1.4,1.1-3.4,3.1-3.7,9.3"/>
	<path class="st1" d="M68.6,49.2c0,0,0,25,6.7,6c0.2-0.6,0.4-1.1,0.5-1.7l1.4-7.3l0.2,12.5c0,0,6.4-29.9,6.5-8.8
		c0,0-0.5,14.8,6.3-5.4"/>
	<path class="st1" d="M67.5,44.6c0,0-0.9,2.5,1.3,2.5c0,0,2.2-0.3,1.4-2.2C70.1,44.8,68.9,42.8,67.5,44.6z"/>
	<path class="st1" d="M98,37.4c0,0-11.8,6.1-4.5-10.3c0,0,13.5-22.5,14.8-8.2c0.1,1.2,0.1,2.5-0.1,3.7c-0.7,5.5-3,24.5,0.2,21.3"/>
	<path class="st1" d="M125,7.1c0,0-18.4,19-13,22.3c0,0,17.3,11.2,21.5,4.6"/>
	<path class="st1" d="M125.9,20.1c0,0-1.4,23.3,7.4,6.2c0.8-1.5,1.2-3.2,1.2-5v-4.2l0.4,12c0,0,6.4-23.8,6.4-12.9v8.4
		c0,0,4.5-23.5,5.7-8.7c0,0.4,0,0.8,0,1.2c0,2.6,1.2,11.5,5.4-1.3"/>
	<path class="st1" d="M125.2,15.3c0,0-0.6,3,1.9,2.2c0,0,1.3-0.4,0.5-2.5C127.6,15,126.2,13.5,125.2,15.3z"/>
</g>
</svg>
