<?xml version="1.0" encoding="utf-8"?>
<!-- Generator: Adobe Illustrator 25.0.0, SVG Export Plug-In . SVG Version: 6.00 Build 0)  -->
<svg version="1.1" id="Layer_2" xmlns="http://www.w3.org/2000/svg" xmlns:xlink="http://www.w3.org/1999/xlink" x="0px" y="0px"
	 viewBox="0 0 633 213.9" style="enable-background:new 0 0 633 213.9;" xml:space="preserve">
<style type="text/css">
	.st0{fill:none;stroke:#EF1414;stroke-linecap:round;stroke-linejoin:round;}
	.st1{fill:none;stroke:#EF1414;stroke-linecap:round;stroke-linejoin:round;stroke-dasharray:2.9902,2.9902;}
	.st2{fill:none;stroke:#EF1414;stroke-linecap:round;stroke-linejoin:round;stroke-dasharray:2.9853,2.9853;}
	.st3{fill:none;stroke:#EF1414;stroke-linecap:round;stroke-linejoin:round;stroke-dasharray:3.0222,3.0222;}
	.st4{fill:none;stroke:#EF1414;stroke-linecap:round;stroke-linejoin:round;stroke-dasharray:2.9911,2.9911;}
</style>
<g>
	<g>
		<line class="st0" x1="9" y1="208.2" x2="9" y2="206.7"/>
		<path class="st1" d="M9,203.7v-61.6c0.1-2.9,0.3-5.6,0.6-7.9c1.8-12.4,12.6-21.5,25.1-21.5h237.6c46.1,0,45-84.1,44.3-101.1"/>
		<path class="st0" d="M316.6,10c0-1-0.1-1.5-0.1-1.5C316.6,8.5,316.6,9,316.6,10"/>
		<path class="st2" d="M316.4,13c-0.8,19.9-3.5,99.9,44.3,100.1l245.2,0.5c0,0,20-0.5,20.9,22.8v68.8"/>
		<line class="st0" x1="626.9" y1="206.7" x2="626.9" y2="208.2"/>
	</g>
</g>
<g>
	<g>
		<path class="st0" d="M316.5,40.9c0,0,0,0.5,0.1,1.5"/>
		<path class="st3" d="M316.7,45.4c0.8,18.7,1.9,89.1-23.2,88.9l-74.6,0c0,0-5.2,0.2-5.7,7.6v63.3"/>
		<line class="st0" x1="213.1" y1="206.7" x2="213.1" y2="208.2"/>
	</g>
</g>
<g>
	<g>
		<path class="st0" d="M316.8,71.8c0,0,0,0.5,0,1.5"/>
		<path class="st4" d="M317,76.2c0.6,14.1,3.7,56.7,17.1,57.1h82.5c0,0,5.7-0.7,5.7,8.3v63.5"/>
		<line class="st0" x1="422.3" y1="206.7" x2="422.3" y2="208.2"/>
	</g>
</g>
</svg>
