<?xml version="1.0" encoding="utf-8"?>
<!-- Generator: Adobe Illustrator 25.0.0, SVG Export Plug-In . SVG Version: 6.00 Build 0)  -->
<svg version="1.1" xmlns="http://www.w3.org/2000/svg" xmlns:xlink="http://www.w3.org/1999/xlink" x="0px" y="0px"
	 viewBox="0 0 41.3 24.6" style="enable-background:new 0 0 41.3 24.6;" xml:space="preserve">
<style type="text/css">
	.st0{fill:none;stroke:#FFE818;stroke-linecap:round;stroke-linejoin:round;}
</style>
	<path class="st0" d="M36.9,6c0,0-1.8-6.5-19.1-4.6c-0.6,0.1-1.2,0.2-1.8,0.3C11.4,2.9-6.9,8.1,5.4,16.1c0,0,31.4,16.3,34.5-4.6
		c0,0,1.9-10.5-17.9-8.9c-0.3,0-0.5,0.1-0.8,0.1c-2.9,0.4-20,3.3-17.8,10.2c0.4,1.3,1.4,2.3,2.7,2.9c5.4,2.5,21.1,9.5,30.2-2.7
		c0.4-0.6,0.6-1.3,0.5-2c-0.1-0.9-0.8-1.9-3.1-1.6"/>
</svg>
