<?xml version="1.0" encoding="utf-8"?>
<!-- Generator: Adobe Illustrator 25.0.0, SVG Export Plug-In . SVG Version: 6.00 Build 0)  -->
<svg version="1.1" xmlns="http://www.w3.org/2000/svg" xmlns:xlink="http://www.w3.org/1999/xlink" x="0px" y="0px"
	 viewBox="0 0 118.6 30.1" style="enable-background:new 0 0 118.6 30.1;" xml:space="preserve">
<style type="text/css">
	.st0{fill:none;stroke:#FFE818;stroke-linecap:round;stroke-linejoin:round;}
</style>
	<path class="st0" d="M1,3.7c0.6,0,31.7-12.2,69.6,18.4c0.9,0.7,1.6,1.6,2,2.7c0.3,0.9,0.5,1.9,0.2,2.9c-0.4,1.1-1.6,1.8-2.8,1.7
		c-2.2-0.2-5.5-1.3-1-6.5c0,0,8.7-10.6,23-8.1c0,0,12.5,1.5,24.4,10.1"/>
	<path class="st0" d="M106.1,10.9c0,0-1,7.1,9.6,13.4c0,0-3.7-3.8-15.7-3.2"/>
</svg>
